<svg
  version="1.1"
  id="Layer_1"
  xmlns="http://www.w3.org/2000/svg"
  xmlns:xlink="http://www.w3.org/1999/xlink"
  x="0px"
  y="0px"
  width="100%"
  viewBox="0 0 838 957"
  enable-background="new 0 0 838 957"
  xml:space="preserve"
>
  <path
    fill="#117A41"
    opacity="1.000000"
    stroke="none"
    d="
M839.000000,284.000000 
	C839.000000,329.020905 839.000000,374.041779 838.635132,419.432190 
	C837.217651,420.262146 836.117676,420.637909 835.119324,421.195679 
	C813.993652,432.998413 792.885864,444.833221 771.760986,456.637329 
	C751.640381,467.880280 731.489929,479.069885 711.378723,490.329498 
	C690.117065,502.233215 668.877197,514.176025 647.644653,526.131714 
	C630.312561,535.891174 613.051147,545.777649 595.642456,555.398071 
	C592.689575,557.029846 591.928528,558.918640 591.936523,562.080261 
	C592.034058,600.739563 591.996338,639.399231 592.012573,678.058777 
	C592.013184,679.444397 592.208984,680.829895 592.364807,682.889954 
	C597.477722,680.111877 601.970154,677.669128 606.464233,675.229431 
	C629.494202,662.726685 652.546692,650.265015 675.549438,637.712341 
	C703.927124,622.226440 732.263855,606.665527 760.617798,591.136108 
	C776.182739,582.611084 791.706055,574.008789 807.325012,565.584045 
	C817.813538,559.926575 828.436951,554.519226 839.000000,549.000000 
	C839.000000,608.687561 839.000000,668.375122 838.640808,728.454529 
	C816.153687,740.913391 794.003601,752.940247 771.902954,765.056946 
	C738.190796,783.539734 704.537903,802.130676 670.810730,820.586121 
	C650.737183,831.570251 630.536804,842.322449 610.452209,853.286682 
	C578.784912,870.573975 547.157104,887.933716 515.532715,905.299255 
	C500.155884,913.742859 484.875336,922.362671 469.454926,930.725159 
	C459.148926,936.314148 448.673370,941.590515 438.006470,947.105774 
	C437.496979,947.484558 437.254700,947.764343 437.004181,948.021484 
	C436.995972,947.998840 437.040588,948.016663 436.796082,948.115723 
	C436.292847,948.452820 436.034119,948.690918 435.585205,949.020630 
	C435.395050,949.112244 434.981171,949.195435 434.665833,948.890137 
	C434.271545,946.758850 434.123688,944.932861 434.123413,943.106873 
	C434.098907,784.961243 434.085754,626.815674 434.071899,468.670074 
	C434.071808,467.670227 433.792664,466.559570 434.134735,465.694855 
	C434.739319,464.166718 435.364685,462.192108 436.606812,461.446777 
	C443.248749,457.461365 450.050964,453.737305 456.859222,450.035828 
	C474.730469,440.319611 492.645203,430.683228 510.520508,420.974396 
	C526.460327,412.316803 542.398926,403.656250 558.283997,394.898956 
	C568.955505,389.015839 579.532715,382.961853 590.460022,376.838318 
	C603.591125,369.762573 616.435730,362.872009 629.233276,355.895172 
	C661.689392,338.201111 694.130859,320.480011 726.565308,302.746216 
	C742.574036,293.993317 758.525696,285.135590 774.554871,276.420441 
	C795.662109,264.944397 816.820129,253.561905 837.974060,242.596832 
	C837.997986,245.027069 837.921936,247.004044 838.026367,248.971466 
	C838.310059,254.316467 838.670166,259.657440 839.000000,265.000000 
	C839.000000,266.388885 839.000000,267.777802 838.748901,269.908813 
	C838.665222,275.100647 838.832581,279.550323 839.000000,284.000000 
z"
  />
  <path
    fill="#8CCE6B"
    opacity="1.000000"
    stroke="none"
    d="
M0.999993,726.000000 
	C1.000000,564.975098 1.000000,403.950165 1.337313,242.569397 
	C20.160830,252.345200 38.633427,262.501801 57.136330,272.602875 
	C87.260201,289.048035 117.369667,305.520386 147.586517,321.793213 
	C151.002167,323.632660 151.018829,326.123749 151.018112,329.170746 
	C150.995300,427.819489 150.998779,526.468201 150.998459,625.116943 
	C150.998459,626.450012 150.670822,627.897461 151.084000,629.087341 
	C151.603653,630.583801 152.403473,632.432983 153.647949,633.154236 
	C161.279343,637.578003 169.075134,641.717651 176.807617,645.967468 
	C189.985718,653.210327 203.110123,660.552551 216.347580,667.685120 
	C226.101089,672.940552 235.998703,677.928467 246.010742,683.322083 
	C250.139816,684.154114 247.960876,681.074768 247.964890,680.012268 
	C248.087814,647.514282 248.065323,615.015686 248.026245,582.517151 
	C247.985977,549.020386 247.904785,515.523682 247.906433,481.560059 
	C247.934723,466.081085 247.898117,451.068970 247.922485,435.586853 
	C247.712402,425.448578 247.441360,415.780243 247.098419,405.641052 
	C247.024780,399.086365 246.923065,393.000305 247.061035,386.919647 
	C247.136597,383.588959 247.616867,380.267487 248.158813,377.188324 
	C298.946198,405.091370 349.468903,432.785645 400.076813,460.323334 
	C403.607147,462.244293 404.998901,464.310211 404.955048,468.398285 
	C404.597534,501.711945 404.377441,535.028015 404.309479,568.343689 
	C404.055969,692.627625 403.880737,816.911743 403.634949,941.195740 
	C403.630463,943.467163 403.114105,945.737488 402.640503,948.001709 
	C402.444427,947.994995 402.080811,947.847595 401.903290,947.670654 
	C401.432465,947.334412 401.139160,947.175110 400.490021,947.002563 
	C383.471497,937.668091 366.832825,928.303589 350.140472,919.035828 
	C325.300171,905.244141 300.425293,891.514832 275.558380,877.771240 
	C263.554016,871.136719 251.496811,864.596863 239.529892,857.895630 
	C220.292419,847.123230 201.151001,836.178955 181.891571,825.446167 
	C165.780121,816.467651 149.500214,807.791077 133.398788,798.794861 
	C111.736343,786.691650 90.195541,774.370972 68.561234,762.217041 
	C51.322006,752.532349 34.065464,742.876282 16.719664,733.384766 
	C11.650581,730.611023 6.249107,728.444763 0.999993,726.000000 
z"
  />
  <path
    fill="#42A542"
    opacity="1.000000"
    stroke="none"
    d="
M416.000000,1.000001 
	C417.714386,1.000000 419.428741,1.000000 421.412659,1.346667 
	C424.438232,3.455876 427.125031,5.339250 429.960602,6.962873 
	C474.218536,32.304775 518.480957,57.638924 562.772888,82.921387 
	C601.265015,104.893219 639.798401,126.792809 678.305908,148.737701 
	C683.940674,151.948883 689.533081,155.234436 696.065247,159.018661 
	C621.417358,200.055222 547.796509,240.527176 473.639252,281.294006 
	C498.059357,294.864899 521.727112,307.948242 545.324707,321.156891 
	C559.994751,329.368347 574.558655,337.769501 588.984558,346.382019 
	C587.953796,347.205658 587.132996,347.777435 586.260010,348.253448 
	C531.780212,377.957458 477.284454,407.632294 422.848694,437.416748 
	C420.274017,438.825500 418.458405,438.545227 416.055359,437.233856 
	C378.380157,416.673676 340.670532,396.176453 302.939056,375.719574 
	C284.671234,365.815247 266.341797,356.024567 247.685394,346.094238 
	C219.616745,330.997559 191.889450,316.013947 164.192474,300.974518 
	C127.362198,280.975647 90.552536,260.938843 53.740971,240.905609 
	C44.816547,236.048859 35.919300,231.142166 26.622913,226.046509 
	C27.663931,225.107620 28.176979,224.461319 28.841063,224.073883 
	C36.942268,219.347504 45.050137,214.632080 53.186111,209.965836 
	C81.037743,193.992004 108.888977,178.017441 136.763443,162.083527 
	C169.501282,143.369537 202.250519,124.675415 235.018646,106.014526 
	C262.026825,90.633812 289.091827,75.352821 316.091461,59.957123 
	C346.372101,42.690521 376.631531,25.386330 406.828247,7.973638 
	C410.128540,6.070556 412.954193,3.344399 416.000000,1.000001 
M365.413422,206.911316 
	C404.185638,185.852936 442.957855,164.794540 482.286652,143.433853 
	C464.419983,133.350800 447.365936,123.648460 430.181366,114.183128 
	C428.874023,113.463028 426.396179,113.933395 424.883362,114.691002 
	C419.727448,117.273064 414.788422,120.283852 409.715973,123.037621 
	C377.502625,140.525772 345.271637,157.981415 313.058014,175.469055 
	C308.653076,177.860291 304.312317,180.369766 299.505463,183.069626 
	C301.943268,184.591736 303.708679,185.796463 305.566010,186.837189 
	C318.526733,194.099655 331.729248,200.964661 344.386780,208.719986 
	C350.770294,212.631180 356.264557,213.531830 362.297333,208.912994 
	C363.088806,208.307037 363.902252,207.729736 365.413422,206.911316 
M440.547699,385.103729 
	C452.569183,375.946136 456.421631,363.235718 453.532471,349.264160 
	C450.554260,334.861969 441.170532,325.566010 426.108643,322.567017 
	C403.348022,318.035065 384.770355,336.597321 384.176392,355.701172 
	C383.724152,370.246796 391.435333,381.067383 403.917908,387.933044 
	C408.798431,390.617462 414.928772,393.094391 420.166199,392.550201 
	C426.940674,391.846344 433.391144,388.024048 440.547699,385.103729 
z"
  />

  <path
    fill="#F5F601"
    opacity="1.000000"
    stroke="none"
    d="
M434.665833,948.890137 
	C430.436859,951.952393 425.892517,954.709351 421.674072,957.733154 
	C420.611115,958.000000 419.222198,958.000000 417.416626,958.000000 
	C415.213593,956.416443 413.577881,954.603699 411.604004,953.305176 
	C408.929108,951.545654 405.994904,950.180176 403.004272,948.327026 
	C403.114105,945.737488 403.630463,943.467163 403.634949,941.195740 
	C403.880737,816.911743 404.055969,692.627625 404.309479,568.343689 
	C404.377441,535.028015 404.597534,501.711945 404.955048,468.398285 
	C404.998901,464.310211 403.607147,462.244293 400.076813,460.323334 
	C349.468903,432.785645 298.946198,405.091370 248.158813,377.188324 
	C247.948685,366.989746 247.982758,357.037598 248.028534,346.633972 
	C266.341797,356.024567 284.671234,365.815247 302.939056,375.719574 
	C340.670532,396.176453 378.380157,416.673676 416.055359,437.233856 
	C418.458405,438.545227 420.274017,438.825500 422.848694,437.416748 
	C477.284454,407.632294 531.780212,377.957458 586.260010,348.253448 
	C587.132996,347.777435 587.953796,347.205658 588.984558,346.382019 
	C589.446838,350.275208 589.863892,354.461456 589.966125,358.655396 
	C590.107483,364.452515 590.011597,370.255371 590.084717,376.520020 
	C579.532715,382.961853 568.955505,389.015839 558.283997,394.898956 
	C542.398926,403.656250 526.460327,412.316803 510.520508,420.974396 
	C492.645203,430.683228 474.730469,440.319611 456.859222,450.035828 
	C450.050964,453.737305 443.248749,457.461365 436.606812,461.446777 
	C435.364685,462.192108 434.739319,464.166718 434.134735,465.694855 
	C433.792664,466.559570 434.071808,467.670227 434.071899,468.670074 
	C434.085754,626.815674 434.098907,784.961243 434.123413,943.106873 
	C434.123688,944.932861 434.271545,946.758850 434.665833,948.890137 
z"
  />
  <path
    fill="#00612D"
    opacity="1.000000"
    stroke="none"
    d="
M837.974060,242.596832 
	C838.128845,242.105194 838.301331,242.071167 838.736938,242.018585 
	C839.000000,249.354248 839.000000,256.708496 839.000000,264.531372 
	C838.670166,259.657440 838.310059,254.316467 838.026367,248.971466 
	C837.921936,247.004044 837.997986,245.027069 837.974060,242.596832 
z"
  />
  <path
    fill="#00612D"
    opacity="1.000000"
    stroke="none"
    d="
M839.000000,283.535339 
	C838.832581,279.550323 838.665222,275.100647 838.748901,270.325500 
	C839.000000,274.356903 839.000000,278.713806 839.000000,283.535339 
z"
  />
  <path
    fill="#348D37"
    opacity="1.000000"
    stroke="none"
    d="
M438.006500,947.105835 
	C438.039185,947.305176 437.804626,947.603638 437.291229,947.973022 
	C437.254700,947.764343 437.496979,947.484558 438.006500,947.105835 
z"
  />
  <path
    fill="#348D37"
    opacity="1.000000"
    stroke="none"
    d="
M436.796051,948.115723 
	C436.810944,948.300903 436.581329,948.585205 436.063568,948.899231 
	C436.034119,948.690918 436.292847,948.452820 436.796051,948.115723 
z"
  />
  <path
    fill="#F4F501"
    opacity="1.000000"
    stroke="none"
    d="
M246.010712,683.322083 
	C245.899475,675.712646 245.989258,668.389832 246.030716,661.066772 
	C246.366745,601.689026 246.693741,542.311218 247.263031,482.473999 
	C247.502625,482.014526 247.841522,482.026917 247.841522,482.026917 
	C247.904785,515.523682 247.985977,549.020386 248.026245,582.517151 
	C248.065323,615.015686 248.087814,647.514282 247.964890,680.012268 
	C247.960876,681.074768 250.139816,684.154114 246.010712,683.322083 
z"
  />
  <path
    fill="#E7F010"
    opacity="1.000000"
    stroke="none"
    d="
M247.906433,481.560059 
	C247.841522,482.026917 247.502625,482.014526 247.333099,482.010376 
	C247.118866,466.982056 247.074142,451.957947 247.270889,436.480103 
	C247.512375,436.026367 247.861496,436.056824 247.861511,436.056824 
	C247.898117,451.068970 247.934723,466.081085 247.906433,481.560059 
z"
  />
  <path
    fill="#CBE52A"
    opacity="1.000000"
    stroke="none"
    d="
M247.922470,435.586853 
	C247.861496,436.056824 247.512375,436.026367 247.337433,436.015991 
	C247.121231,426.344421 247.079956,416.683258 247.104492,406.567017 
	C247.441360,415.780243 247.712402,425.448578 247.922470,435.586853 
z"
  />
  <path
    fill="#BCE03B"
    opacity="1.000000"
    stroke="none"
    d="
M401.903290,947.670654 
	C401.747375,947.743042 401.413940,947.638550 400.963196,947.274902 
	C401.139160,947.175110 401.432465,947.334412 401.903290,947.670654 
z"
  />

  <path
    fill="#F5F601"
    opacity="1.000000"
    stroke="none"
    d="
M440.264404,385.324097 
	C433.391144,388.024048 426.940674,391.846344 420.166199,392.550201 
	C414.928772,393.094391 408.798431,390.617462 403.917908,387.933044 
	C391.435333,381.067383 383.724152,370.246796 384.176392,355.701172 
	C384.770355,336.597321 403.348022,318.035065 426.108643,322.567017 
	C441.170532,325.566010 450.554260,334.861969 453.532471,349.264160 
	C456.421631,363.235718 452.569183,375.946136 440.264404,385.324097 
z"
  />
</svg>
